HIERARCHY
ROOT Hips
{
	OFFSET -14.64140 90.27770 -84.91600
	CHANNELS 6 Xposition Yposition Zposition Zrotation Xrotation Yrotation
	JOINT Spine
	{
		OFFSET 0.00000 13.20850 -1.60436
		CHANNELS 3 Zrotation Xrotation Yrotation
		JOINT Spine1
		{
			OFFSET 0.00000 8.61716 0.00000
			CHANNELS 3 Zrotation Xrotation Yrotation
			JOINT Spine2
			{
				OFFSET 0.00000 8.61717 0.00000
				CHANNELS 3 Zrotation Xrotation Yrotation
				JOINT Spine3
				{
					OFFSET 0.00000 8.61717 0.00000
					CHANNELS 3 Zrotation Xrotation Yrotation
					JOINT Neck
					{
						OFFSET 0.00000 11.07920 1.10792
						CHANNELS 3 Zrotation Xrotation Yrotation
						JOINT Neck1
						{
							OFFSET 0.00000 7.08032 0.00000
							CHANNELS 3 Zrotation Xrotation Yrotation
							JOINT Head
							{
								OFFSET 0.00000 7.08031 0.00000
								CHANNELS 3 Zrotation Xrotation Yrotation
								End site
								{
									OFFSET 0.00000 0.00000 0.00000
								}
							}
						}
					}
					JOINT RightShoulder
					{
						OFFSET -0.01000 7.91373 5.19711
						CHANNELS 3 Zrotation Xrotation Yrotation
						JOINT RightArm
						{
							OFFSET -18.41580 0.00000 0.00000
							CHANNELS 3 Zrotation Xrotation Yrotation
							JOINT RightForeArm
							{
								OFFSET -29.11090 0.00000 0.00000
								CHANNELS 3 Zrotation Xrotation Yrotation
								JOINT RightHand
								{
									OFFSET -24.65040 0.00000 0.00000
									CHANNELS 3 Zrotation Xrotation Yrotation
									JOINT RightHandThumb1
									{
										OFFSET -5.35114 -0.85590 3.97906
										CHANNELS 3 Zrotation Xrotation Yrotation
										JOINT RightHandThumb2
										{
											OFFSET -4.52789 0.00000 0.00000
											CHANNELS 3 Zrotation Xrotation Yrotation
											JOINT RightHandThumb3
											{
												OFFSET -2.46976 0.00000 0.00000
												CHANNELS 3 Zrotation Xrotation Yrotation
												End site
												{
													OFFSET 0.00000 0.00000 0.00000
												}
											}
										}
									}
									JOINT RightHandIndex1
									{
										OFFSET -14.26970 0.00000 2.88139
										CHANNELS 3 Zrotation Xrotation Yrotation
										JOINT RightHandIndex2
										{
											OFFSET -5.48836 0.00000 0.00000
											CHANNELS 3 Zrotation Xrotation Yrotation
											JOINT RightHandIndex3
											{
												OFFSET -3.01859 0.00000 0.00000
												CHANNELS 3 Zrotation Xrotation Yrotation
												End site
												{
													OFFSET 0.00000 0.00000 0.00000
												}
											}
										}
									}
									JOINT RightHandMiddle1
									{
										OFFSET -14.26970 0.00000 -0.09147
										CHANNELS 3 Zrotation Xrotation Yrotation
										JOINT RightHandMiddle2
										{
											OFFSET -6.17441 0.00000 0.00000
											CHANNELS 3 Zrotation Xrotation Yrotation
											JOINT RightHandMiddle3
											{
												OFFSET -3.56743 0.00000 0.00000
												CHANNELS 3 Zrotation Xrotation Yrotation
												End site
												{
													OFFSET 0.00000 0.00000 0.00000
												}
											}
										}
									}
									JOINT RightHandRing1
									{
										OFFSET -12.69180 0.00000 -3.06433
										CHANNELS 3 Zrotation Xrotation Yrotation
										JOINT RightHandRing2
										{
											OFFSET -5.62556 0.00000 0.00000
											CHANNELS 3 Zrotation Xrotation Yrotation
											JOINT RightHandRing3
											{
												OFFSET -3.56744 0.00000 0.00000
												CHANNELS 3 Zrotation Xrotation Yrotation
												End site
												{
													OFFSET 0.00000 0.00000 0.00000
												}
											}
										}
									}
									JOINT RightHandPinky1
									{
										OFFSET -11.11390 0.00000 -6.03719
										CHANNELS 3 Zrotation Xrotation Yrotation
										JOINT RightHandPinky2
										{
											OFFSET -4.52789 0.00000 0.00000
											CHANNELS 3 Zrotation Xrotation Yrotation
											JOINT RightHandPinky3
											{
												OFFSET -2.46976 0.00000 0.00000
												CHANNELS 3 Zrotation Xrotation Yrotation
												End site
												{
													OFFSET 0.00000 0.00000 0.00000
												}
											}
										}
									}
								}
							}
						}
					}
					JOINT LeftShoulder
					{
						OFFSET 0.01000 7.91373 5.19711
						CHANNELS 3 Zrotation Xrotation Yrotation
						JOINT LeftArm
						{
							OFFSET 18.41580 0.00000 0.00000
							CHANNELS 3 Zrotation Xrotation Yrotation
							JOINT LeftForeArm
							{
								OFFSET 29.11090 0.00000 0.00000
								CHANNELS 3 Zrotation Xrotation Yrotation
								JOINT LeftHand
								{
									OFFSET 24.65040 0.00000 0.00000
									CHANNELS 3 Zrotation Xrotation Yrotation
									JOINT LeftHandThumb1
									{
										OFFSET 5.35114 -0.85590 3.97906
										CHANNELS 3 Zrotation Xrotation Yrotation
										JOINT LeftHandThumb2
										{
											OFFSET 4.52789 0.00000 0.00000
											CHANNELS 3 Zrotation Xrotation Yrotation
											JOINT LeftHandThumb3
											{
												OFFSET 2.46977 0.00000 0.00000
												CHANNELS 3 Zrotation Xrotation Yrotation
												End site
												{
													OFFSET 0.00000 0.00000 0.00000
												}
											}
										}
									}
									JOINT LeftHandIndex1
									{
										OFFSET 14.26970 0.00000 2.88139
										CHANNELS 3 Zrotation Xrotation Yrotation
										JOINT LeftHandIndex2
										{
											OFFSET 5.48836 0.00000 0.00000
											CHANNELS 3 Zrotation Xrotation Yrotation
											JOINT LeftHandIndex3
											{
												OFFSET 3.01859 0.00000 0.00000
												CHANNELS 3 Zrotation Xrotation Yrotation
												End site
												{
													OFFSET 0.00000 0.00000 0.00000
												}
											}
										}
									}
									JOINT LeftHandMiddle1
									{
										OFFSET 14.26970 0.00000 -0.09147
										CHANNELS 3 Zrotation Xrotation Yrotation
										JOINT LeftHandMiddle2
										{
											OFFSET 6.17440 0.00000 0.00000
											CHANNELS 3 Zrotation Xrotation Yrotation
											JOINT LeftHandMiddle3
											{
												OFFSET 3.56744 0.00000 0.00000
												CHANNELS 3 Zrotation Xrotation Yrotation
												End site
												{
													OFFSET 0.00000 0.00000 0.00000
												}
											}
										}
									}
									JOINT LeftHandRing1
									{
										OFFSET 12.69180 0.00000 -3.06433
										CHANNELS 3 Zrotation Xrotation Yrotation
										JOINT LeftHandRing2
										{
											OFFSET 5.62556 0.00000 0.00000
											CHANNELS 3 Zrotation Xrotation Yrotation
											JOINT LeftHandRing3
											{
												OFFSET 3.56744 0.00000 0.00000
												CHANNELS 3 Zrotation Xrotation Yrotation
												End site
												{
													OFFSET 0.00000 0.00000 0.00000
												}
											}
										}
									}
									JOINT LeftHandPinky1
									{
										OFFSET 11.11390 0.00000 -6.03719
										CHANNELS 3 Zrotation Xrotation Yrotation
										JOINT LeftHandPinky2
										{
											OFFSET 4.52789 0.00000 0.00000
											CHANNELS 3 Zrotation Xrotation Yrotation
											JOINT LeftHandPinky3
											{
												OFFSET 2.46976 0.00000 0.00000
												CHANNELS 3 Zrotation Xrotation Yrotation
												End site
												{
													OFFSET 0.00000 0.00000 0.00000
												}
											}
										}
									}
								}
							}
						}
					}
					JOINT pCube4
					{
						OFFSET 0.00000 10.91090 1.10792
						CHANNELS 3 Zrotation Xrotation Yrotation
						End site
						{
							OFFSET 0.00000 0.00000 0.00000
						}
					}
				}
			}
		}
	}
	JOINT RightUpLeg
	{
		OFFSET -9.98441 0.00000 0.00000
		CHANNELS 3 Zrotation Xrotation Yrotation
		JOINT RightLeg
		{
			OFFSET 0.00000 -42.11790 0.00000
			CHANNELS 3 Zrotation Xrotation Yrotation
			JOINT RightFoot
			{
				OFFSET 0.00000 -45.00020 -0.00001
				CHANNELS 3 Zrotation Xrotation Yrotation
				JOINT RightForeFoot
				{
					OFFSET 0.00000 -3.74820 0.00000
					CHANNELS 3 Zrotation Xrotation Yrotation
					JOINT RightToeBase
					{
						OFFSET 0.00000 0.06325 14.43120
						CHANNELS 3 Zrotation Xrotation Yrotation
						End site
						{
							OFFSET 0.00000 0.00000 0.00000
						}
					}
				}
			}
		}
	}
	JOINT LeftUpLeg
	{
		OFFSET 9.98441 0.00000 0.00000
		CHANNELS 3 Zrotation Xrotation Yrotation
		JOINT LeftLeg
		{
			OFFSET 0.00000 -42.11800 0.00000
			CHANNELS 3 Zrotation Xrotation Yrotation
			JOINT LeftFoot
			{
				OFFSET 0.00000 -45.00070 0.00000
				CHANNELS 3 Zrotation Xrotation Yrotation
				JOINT LeftForeFoot
				{
					OFFSET 0.00000 -3.74824 0.00000
					CHANNELS 3 Zrotation Xrotation Yrotation
					JOINT LeftToeBase
					{
						OFFSET 0.00000 0.06325 14.43110
						CHANNELS 3 Zrotation Xrotation Yrotation
						End site
						{
							OFFSET 0.00000 0.00000 0.00000
						}
					}
				}
			}
		}
	}
}
MOTION
Frames: 4
Frame Time: 0.050000
0.041867825080385404 -0.03626417785375769 0.01806125653658261 -0.015996216317390326 -0.022121728629645895 0.012773259420913414 -4.712729585396856 7.413946328990149 -0.4832113280088639 -0.7540101676744884 2.9307310165092657 0.3870828692200603 -0.9178178586729516 -0.0644092951578511 -1.2325206158969504 -1.3258536610989682 0.3475750359909358 -1.0404880117599344 -1.0631508373187921 8.683104730353351 2.389237967255929 -0.17750973432377404 -0.8568985572100988 2.3082393939964643 -0.7408288661699295 -14.810909737793231 0.23833126476762745 2.955782753735878 0.08360813187345337 -8.150256854138046 68.63323088768783 4.1698184636595395 42.03233313167554 45.65303979846365 13.631968216772995 101.86708797163985 28.96173032687574 0.4759152365584541 -15.214609177152562 4.544784752701406 -0.10574264736136232 -1.5454899181688566 -0.0028023478619485873 -0.025649085357255352 -56.24210748311177 -0.0007126900123244104 0.018108258730800093 -56.20065423359577 -38.7906143827262 0.011431712693243928 -0.0360101061764599 0.01601708064663714 -0.033453825946319043 -0.04099272413616216 0.010774361683329306 0.00656769070199508 -0.020570308306032927 -36.652501292099096 -0.004633257924677979 -0.03521659689828471 -0.02734831054824892 0.021705234706748323 -0.0034970833797465465 0.038455005142621915 -0.03458031099103548 0.026220948197197523 -19.72665501465534 0.002947345560558012 -0.04370008455351393 0.02827739580027279 0.021925934828923712 0.02887437383778464 -0.0020822873017251353 0.03835915609003489 -0.04787501271253834 24.023872705026072 0.0005537609164508753 -0.02091812826296254 28.882881294358047 -0.0297537227634977 -0.030996868736152105 28.85730433484142 0.049359824199678874 -0.027377316987350075 0.2019963259209791 0.5574600783318077 7.594268247670691 -62.99780582609194 18.832205658935795 -39.638678408787875 -57.63152165285503 16.038271441975102 -109.93733115270358 -25.781303236943437 -7.3961994828965665 5.297856920124342 -0.5007665439285748 0.0283128702673816 -8.157269397461876 0.008992573047110129 0.047232111526715005 44.55461601775011 0.030579021640781454 0.03496517427638749 44.606457637906054 12.498073538297612 0.04732822267492082 -0.04544558986211877 -0.04716876183791692 0.034793979883792445 -0.019191148795215836 -0.03539720504347186 0.03399427354684164 0.012194292115237891 11.076712571484537 0.03762268855304908 -0.00936218271330692 0.011896709681959829 0.014951052835094328 -0.014284669430926267 -0.003363876795510763 -0.005491494290340862 -0.015695417658175385 4.818343456590337 0.01964821850731878 0.03766143312978657 -0.0028729487177291415 -0.018479731185330524 -0.036288261445564844 0.008096511964242475 0.005129355959708735 -0.008607177793007736 -5.558964679722884 -0.03171107992834838 -0.01800650697538287 -6.694184895680649 -0.011107560966174511 -0.0176081643180115 -6.737541582947168 -0.03699135427289045 0.027536423133949866 0.02389577650632483 0.016584996563832485 0.04525023722736906 8.020406058564514 3.496753962752993 -19.266800212943377 -0.04532128796928519 10.43709482472346 -0.01365970111925759 -5.572209172875695 -15.70395191980579 3.2224454225091783 0.04385441003276783 0.017416176642234594 -0.03089128244820464 -0.012376539722713803 4.669163233909515 0.012501366768119283 12.496763050324862 -8.264087580118222 6.931309801600653 0.04777488430620393 46.41613117283176 6.13834209157939e-05 -4.299314926399699 -14.781898284744386 -3.8651693637466202 0.023854375920358252 0.010346956096686141 0.031098568123486048 0.03688644210288458 -10.744011964999459 -0.0031568315371015795 
0.012334178070094601 -0.04637034103053366 -0.014263585579086111 -0.010547493021766139 0.032431677572894356 -0.04445448542855234 -4.885301055331237 7.424023318263552 -0.44997073718624914 -0.7009490726249443 2.886729248716114 0.4021067008821744 -0.9805772419369289 -0.06224946569498397 -1.3374216018115135 -1.3590983227495894 0.2770852286539054 -0.9847966788099561 -1.0052747565320204 8.890946462308902 2.3771646685092382 -0.13981841314135193 -0.7801787303082361 2.3347831615299097 -0.7043669406504 -14.715716926353426 0.27206882204324984 2.47388978665521 0.2984463509482431 -8.146174621707226 67.78498065144937 0.8107993724373684 44.9281759413565 43.56848271997214 12.809223006168107 102.09389846729773 29.344691333276888 0.48145276814440974 -15.034617571725086 4.532376879235332 -0.10873908217804959 -1.5916128623941532 -0.014472491352560526 -0.033490088997669795 -56.24723193126126 0.0010616799394224405 0.042257422846495835 -56.207038012719664 -38.80771851972492 -0.03918792917388088 -0.007609209567892506 -0.01980616590364235 -0.03475324503208725 0.04950991256380095 -0.001022838827368321 0.010438135162538806 -0.043047276667732295 -36.72229414672319 -0.025174092802948984 -0.04022118505776534 -0.04929081590416135 -0.03842706960400909 0.0357126155713017 -0.0003857191129965751 0.02054871797972475 0.022699214033127982 -19.778476894633304 0.03301629417470867 0.01421355096063216 0.032086897975069854 -0.02956960595519935 0.0012861024187785781 0.029469955983736335 0.04905058260798572 0.03306482198203193 24.07900615320843 -0.0375351211907698 0.016449416542004408 28.822214670171544 0.002440095406580107 -0.03735794041353687 28.909512281251754 -0.006778534563645625 -0.010107745773384533 0.4566324201449731 0.6115662079405717 7.57008333697084 -62.1924331499517 18.442227023540692 -41.282109319201865 -51.50900474048714 14.97721182307213 -108.16799617072992 -24.774240389746183 -6.66612784777048 4.557040859664538 -0.4301228643487669 0.07735091767833169 -8.098490297201524 -0.015366969512064727 -0.03572775566484372 44.59750523232814 0.022242304819183465 0.04432871288031331 44.59458341515667 12.463344660813277 0.019322287105041202 0.0193108912547556 -0.01669360212519606 -0.026232897829460415 -0.01885726179176154 -0.035106254358606294 0.026065950552799207 -0.04596905152910676 11.137456968133305 -0.006450722315710017 0.012375343010045623 0.004670688712116146 0.032307774840317764 0.011392644271696319 0.0005388918199876583 -0.031245495276680343 -0.0010994255797629586 4.759775873232833 0.0053471074489189595 0.03088264293655827 -0.0017624043098539211 -0.00918233176816662 0.006536641924442778 -0.0018320600488653499 -0.045328656595624954 0.009814820098442763 -5.640516561899588 0.005794408017396206 0.029112421079316303 -6.732215346555839 -0.04449706365430416 0.022871637808217948 -6.756566974897127 -0.04142417407575442 0.034671027965853106 -0.0011859585573941235 -0.03702649552748715 -0.005414508873001034 8.012367348746137 3.456230667428197 -19.205918801394798 -0.042050108886029086 10.375529695859887 -0.021934157333642703 -5.579835261449231 -15.662914758239587 3.2238630295002597 -0.036448722649251676 0.04215424623902216 -0.008812796602873353 0.024283850580535213 4.667571397655183 -0.010729270803066113 12.416000504699596 -8.273014838070543 6.845079826842781 0.01846566284626285 46.34092034934221 0.047446782071213014 -4.348288846637433 -14.790167498387161 -3.8435564048252164 0.018410955681448737 0.02553364779903856 0.021030332944917404 0.04645520341268196 -10.711047720521307 -0.04164654833032547 
-0.03683276857107887 0.0057275394477548786 0.032201485334824136 -0.008222174061774334 -0.00885387368863363 0.021292989581389248 -4.994432024368491 7.5643368056099485 -0.4677894177482482 -0.7102196158193729 2.8020153188443526 0.37219059913495295 -0.9556327481478042 -0.09531466202043908 -1.3556307910002605 -1.4070284342826822 0.28915889390280974 -1.0291450820004109 -0.8633617590775695 8.919613202488629 2.2050355256078333 -0.10698034126728367 -0.6998719294336875 1.9722578258272296 -0.6121206777153078 -14.51110919567602 0.21430053711559854 2.2788091216653763 0.3759763475602194 -8.22051070071674 66.62950015875019 -1.8641244953365332 46.06218980372343 41.29818732113971 12.45737962956414 102.81390081001537 29.923038211626363 0.5393243611641146 -14.994180213667889 4.536579839910111 -0.14155630723080276 -1.5535848783155677 -0.02288517267401268 -0.043682280455796356 -56.18786497236441 -0.019298477012763916 0.04900012041043916 -56.23916609908593 -38.73903085350423 -0.048615307475785116 -0.019477083825363044 -0.0174372995933897 0.003056804862788097 -0.03569242764266553 -0.020134492282424463 -0.024139714771194205 -0.016060280234139766 -36.72372212434559 0.0008121367414036219 -0.03452064057343616 0.01971311080988224 0.011570670045020348 0.011081580677958315 0.0005145364435111903 0.03895556163708756 -0.029516177116299384 -19.79124343924601 -0.0023554822647496557 0.016591608467873956 0.02172868316774907 0.001076986723571894 0.02916661199249401 0.011207454130962724 -0.04256467715542673 -0.0020172232006893205 24.015076488129104 -0.008788369151389567 0.013152975256803189 28.8763601109136 -0.0254797009552466 0.016695368971035768 28.89200727898901 0.04503327933930787 0.0033533673713802494 0.16966396076925366 0.5101418634643942 7.609501127375253 -61.13090769132891 18.99286888129665 -41.33562182277188 -43.97637545845813 13.713607472462405 -106.49377780120668 -23.991503930552515 -6.330170016153025 4.189698318567249 -0.47872420148591927 0.042802492636948936 -8.111574421546898 0.0022423164822003 0.04626796734138564 44.56200537747899 0.01997889920149029 -0.031365905863983745 44.5881049367015 12.479369467137186 0.01438008499630452 -0.040995603059055155 0.02915689814963035 -0.00922575950312154 -0.01818039500488627 -0.030707553430872954 -0.0025452774391514 0.028169326891449 11.121329785519295 0.013141632370779604 0.004360215967518927 0.010074398362145664 -0.03131140083386891 0.029218451766480878 -0.04075358289896101 -0.047890412356149055 0.020271214241083996 4.748640225521944 -0.03542180213951988 -0.023091547732698964 0.009977183123267595 -0.006431912098192717 -0.0003214252417890946 0.04884319012277524 0.01696059017535122 -0.0018475748228535685 -5.563411304117688 -0.03989217648932612 -0.02232956781668524 -6.687632225274334 -0.04814178946052921 -0.04080010265839815 -6.722899247072741 0.03301736414723747 0.018718888950592538 -0.015297321523628641 -0.041512800460736396 0.031144840812601934 8.031246220671973 3.52340420607196 -19.225372376238987 -0.00775410410952474 10.376187769555553 -0.024511384320167206 -5.635840459392395 -15.662808001731845 3.1508843956230574 0.037578857095291913 -0.042691520308091056 -0.0036472967483205153 0.031292870888808555 4.706582904658472 0.011177262413859171 12.421486848877954 -8.26312672789218 6.894845041789638 0.00979447711995547 46.33377831082964 0.004899915567452556 -4.374390401428514 -14.746326442154684 -3.7934899149828554 0.0238480455663742 -0.039884703984301065 -0.013845714877414941 -0.01937536614335744 -10.752809172953336 0.009097915913114074 
0.005849663213006229 -0.015120274946159987 -0.020569173605842594 0.005347814001787744 0.028948875731311635 -0.028208613894232928 -5.026703561423444 7.613464270926467 -0.5062248261497451 -0.7435284656263464 2.7952031637946 0.39004544830609994 -0.9949544491523512 -0.08432598557690434 -1.3880248065624814 -1.3326359543225799 0.299893265572098 -1.0389052954299096 -0.6925399611920862 8.991664205094967 1.9472565517976654 -0.10439505595180516 -0.6202841322656821 1.1130114803991313 -0.5434464446740805 -14.367816852679974 0.2222516081917409 2.2445802360972267 0.3531385999640411 -8.347826208180985 65.58569134053865 -4.011527578919043 46.33411555234706 37.55024222396679 11.396825786732906 103.64547130943747 29.769469027023547 0.4069752288290169 -14.600447962663447 4.514658639671074 -0.13673460912599672 -1.562097089689561 0.007965815914793901 -0.049927182278876714 -56.24280287982209 -0.0064917263096179985 0.014090340639489475 -56.18923666047891 -38.75590108894724 -0.015038715630041935 -0.004936159989725197 0.04126385568030553 0.004777206513808964 0.019850301613127806 0.04111908270338156 0.046508203029200994 0.023723630675354018 -36.73727195225986 0.015419986307277922 0.014656815720165636 -0.039983098947334345 -0.03249483186229891 -0.0067548234207583276 0.02210694735615703 0.02004304556313133 -0.005733917992890981 -19.719138760946496 0.030811681086904498 0.00854064128057947 -0.030381786922048487 -0.023743827647386147 0.03487225954336368 -0.033632856569550534 -0.04529903303041311 -0.00961941463892483 24.09105193167662 0.044515131003679036 0.026212421216060624 28.89130774863957 -0.02110142191327401 0.002318853715314156 28.8315297307614 -0.036585169720471246 -0.009699754295856353 -0.07912639938428179 0.4698164950417518 7.638612547734102 -59.859282752098956 20.222183305988057 -40.953105075227064 -32.92964727443369 10.64890709419169 -104.67004100069894 -22.288714758910963 -5.752650422586725 3.610058364649798 -0.4589969770751596 0.04190863154979273 -8.108521667994715 -0.0035706196148771433 -0.0013553533084108978 44.545354574385314 -0.03537808890209823 0.03833407443479108 44.55637746836177 12.50225269394163 0.024726852614509923 -0.0413939162498947 0.02424871829938733 0.012938008136836746 0.04674220317267012 0.007735965962872019 -0.02645747668442342 -0.03199005840733782 11.13666677765129 0.029881814469267885 0.03128145363868991 0.003779977408201597 0.0348328906425833 -0.019608110044442843 0.02005701606856192 -0.005902401607342404 -0.020398620212172175 4.808238120012442 0.018671223812026714 -0.03592862376739997 0.03418257684378154 -0.005390252811923761 0.03209205998387625 -0.010619277069332186 0.0266415901842932 0.002863403612648613 -5.65027414883448 -0.04028386455691857 0.027827588688166007 -6.752388014746577 -0.03867658745457075 -0.004923883470330122 -6.692183054822724 -0.04269600506869926 -0.031249499985441756 0.035652068152338706 0.017011022613314268 -0.045686538217280734 8.076570854197438 3.495809302716077 -19.248969027164318 -0.006284593689075437 10.386200550083581 0.03955269674872411 -5.645512425601721 -15.674090184272904 3.179093544912743 -0.015419986201528927 -0.03204565515679415 0.007472854007262694 0.027822449835973314 4.731211849069967 -0.0036325035788993035 12.439621389594684 -8.266508655136263 6.898194050622084 -0.03077654457317107 46.3922956583143 -0.018397664214428594 -4.283909352287813 -14.765185244332114 -3.799969043317779 -0.03681969680528261 -0.020315180504364802 0.016639029321425587 0.03988956475619314 -10.767921930909614 0.002015913750557324 
